# ProBuilder 4.1.0
# https://unity3d.com/unity/features/worldbuilding/probuilder
# 20-11-19 11:53:26

mtllib ./Cube-Merged.mtl
o Cube-Merged

g Cube-Merged
v 5.713463 -5.400002 -14.02909
v 5.713463 -5.400002 -15.02909
v 5.713463 -0.4000015 -14.02909
v 5.713463 -0.4000015 -15.02909
v 5.713463 -5.400002 -17.52909
v 5.713463 -5.400002 -18.52909
v 5.713463 -0.4000015 -17.52909
v 5.713463 -0.4000015 -18.52909
v 5.713463 0.5999985 -14.02909
v 5.713463 0.5999985 -15.02909
v 5.713463 0.5999985 -17.52909
v 5.713463 0.5999985 -18.52909
v 5.913464 -5.400002 -15.02909
v 5.913464 -5.400002 -14.02909
v 5.913464 -0.4000015 -15.02909
v 5.913464 -0.4000015 -14.02909
v 5.913464 -5.400002 -18.52909
v 5.913464 -5.400002 -17.52909
v 5.913464 -0.4000015 -18.52909
v 5.913464 -0.4000015 -17.52909
v 5.913464 0.5999985 -15.02909
v 5.913464 0.5999985 -14.02909
v 5.913464 0.5999985 -18.52909
v 5.913464 0.5999985 -17.52909
v 5.948662 -4.710001 -23.96091
v 5.712498 -4.710001 -23.96091
v 5.948662 -4.710001 -21.27909
v 5.712498 -4.710001 -21.27909
v 5.712498 1.737104 -23.96091
v 5.712498 1.737104 -21.27909
v 5.948662 1.737104 -23.96091
v 5.948662 1.737104 -21.27909
v 5.948662 0.44203 23.93791
v 5.712498 0.44203 23.93791
v 5.948662 5.4 23.93791
v 5.712498 5.4 23.93791
v 5.712498 0.44203 -23.89643
v 5.712498 5.4 -23.89643
v 5.948662 0.44203 -23.89643
v 5.948662 5.4 -23.89643
v 5.948662 -4.710001 21.27909
v 5.712498 -4.710001 21.27909
v 5.948662 -4.710001 23.96091
v 5.712498 -4.710001 23.96091
v 5.712498 1.737104 21.27909
v 5.712498 1.737104 23.96091
v 5.948662 1.737104 21.27909
v 5.948662 1.737104 23.96091
v 5.948662 -4.710001 -20.31091
v 5.712498 -4.710001 -20.31091
v 5.948662 -4.710001 -17.62909
v 5.712498 -4.710001 -17.62909
v 5.712498 1.737104 -20.3109
v 5.712498 1.737104 -17.62909
v 5.948662 1.737104 -20.3109
v 5.948662 1.737104 -17.62909
v -5.948666 5.129999 23.93791
v -5.948666 5.366163 23.93791
v 5.913298 5.129999 23.93791
v 5.913298 5.366163 23.93791
v -5.948666 5.366163 -23.89643
v 5.913298 5.366163 -23.89643
v -5.948666 5.129999 -23.89643
v 5.913298 5.129999 -23.89643
v 5.948662 -4.710001 -21.74091
v 5.712498 -4.710001 -21.74091
v 5.948662 -4.710001 -19.05909
v 5.712498 -4.710001 -19.05909
v 5.712498 1.737104 -21.7409
v 5.712498 1.737104 -19.05909
v 5.948662 1.737104 -21.7409
v 5.948662 1.737104 -19.05909
v 5.948662 -4.710001 -14.93091
v 5.712498 -4.710001 -14.93091
v 5.948662 -4.710001 -12.24909
v 5.712498 -4.710001 -12.24909
v 5.712498 1.737104 -14.93091
v 5.712498 1.737104 -12.24909
v 5.948662 1.737104 -14.93091
v 5.948662 1.737104 -12.24909
v 5.948662 -5.371817 -17.50909
v 5.712498 -5.371817 -17.50909
v 5.948662 -2.690002 -17.50909
v 5.712498 -2.690002 -17.50909
v 5.712498 -5.371817 -23.9562
v 5.712498 -2.690002 -23.9562
v 5.948662 -5.371817 -23.9562
v 5.948662 -2.690002 -23.9562
v 5.948662 -5.371817 23.93791
v 5.712498 -5.371817 23.93791
v 5.948662 -2.690002 23.93791
v 5.712498 -2.690002 23.93791
v 5.712498 -5.371817 -14.22339
v 5.712498 -2.690002 -14.22339
v 5.948662 -5.371817 -14.22339
v 5.948662 -2.690002 -14.22339

vt 23.93791 -3.690002
vt 22.93791 -3.690002
vt 23.93791 1.309998
vt 22.93791 1.309998
vt 20.43791 -3.690002
vt 19.43791 -3.690002
vt 20.43791 1.309998
vt 19.43791 1.309998
vt 23.93791 2.309998
vt 22.93791 2.309998
vt 20.43791 2.309998
vt 19.43791 2.309998
vt -22.93791 -3.690002
vt -23.93791 -3.690002
vt -22.93791 1.309998
vt -23.93791 1.309998
vt -19.43791 -3.690002
vt -20.43791 -3.690002
vt -19.43791 1.309998
vt -20.43791 1.309998
vt -22.93791 2.309998
vt -23.93791 2.309998
vt -19.43791 2.309998
vt -20.43791 2.309998
vt 2.448662 23.93791
vt 4.948662 23.93791
vt 2.448662 23.73791
vt 4.948662 23.73791
vt 6.148662 -3.690002
vt 5.948662 -3.690002
vt 6.148662 1.309998
vt 5.948662 1.309998
vt -5.948662 -3.690002
vt -6.148662 -3.690002
vt -5.948662 1.309998
vt -6.148662 1.309998
vt 5.948662 22.25609
vt 5.712498 22.25609
vt 5.948662 24.93791
vt 5.712498 24.93791
vt 23.93791 -5.371818
vt 17.4908 -5.371818
vt 23.93791 -2.690001
vt 17.4908 -2.690001
vt -5.712498 22.25609
vt -5.948662 22.25609
vt -5.712498 24.93791
vt -5.948662 24.93791
vt -17.4908 -5.371818
vt -23.93791 -5.371818
vt -17.4908 -2.690001
vt -23.93791 -2.690001
vt 6.184827 -3.690002
vt 5.948661 -10.13711
vt 6.184826 -10.13711
vt -5.948662 -10.13711
vt -6.184827 -10.13711
vt -6.184826 -3.690002
vt 5.948662 -7.647972
vt 5.712498 -7.647972
vt 5.948662 -2.690002
vt 5.712498 -2.690002
vt 23.93791 -7.647972
vt -23.89643 -7.647972
vt -23.89643 -2.690002
vt -5.712498 -7.647972
vt -5.948662 -7.647972
vt -5.712498 -2.690002
vt -5.948662 -2.690002
vt 23.89643 -7.647972
vt -23.93791 -7.647972
vt 23.89643 -2.690002
vt -5.948662 23.93791
vt -5.712498 23.93791
vt -5.948662 -23.89643
vt -5.712498 -23.89643
vt 5.948662 -23.89643
vt 5.712498 -23.89643
vt 5.948662 23.93791
vt 5.712498 23.93791
vt -23.93791 -2.689998
vt -5.948661 -3.689988
vt -6.184826 -3.689988
vt 5.948663 -15.58733
vt 5.712497 -15.58733
vt 5.948663 -3.725367
vt 5.712497 -3.725367
vt -5.948662 12.04058
vt -53.783 12.04058
vt -5.948662 23.90254
vt -53.783 23.90254
vt -5.712498 -15.58733
vt -5.948663 -15.58733
vt -5.712497 -3.725367
vt -5.948662 -3.725367
vt 53.783 12.04058
vt 5.948662 12.04058
vt 53.783 23.90254
vt 5.948662 23.90254
vt -23.70174 -3.690002
vt -23.93791 -51.52434
vt -23.70174 -51.52434
vt 23.93791 -51.52434
vt 23.70174 -51.52434
vt 23.70174 -3.690002
vt 5.948662 -3.689988
vt 6.184827 -3.689988
vt 5.948662 -5.371817
vt 5.712498 -5.371817
vt -5.712498 -5.371817
vt -5.948662 -5.371817
vt -5.948662 17.4908
vt -5.712498 17.4908
vt 5.948662 17.4908
vt 5.712498 17.4908
vt -14.22339 -5.371817
vt -14.22339 -2.690002
vt 14.22339 -5.371817
vt 14.22339 -2.690002
vt -5.948662 -14.22339
vt -5.712498 -14.22339
vt 5.948662 -14.22339
vt 5.712498 -14.22339

vn -1 0 0
vn 1 0 0
vn 0 -1 0
vn 0 0 1
vn 0 0 -1
vn 0 1 0

usemtl Wall
f 3/3/1 4/4/1 2/2/1 1/1/1
f 7/7/1 8/8/1 6/6/1 5/5/1
f 9/9/1 10/10/1 4/4/1 3/3/1
f 11/11/1 12/12/1 8/8/1 7/7/1
f 10/10/1 11/11/1 7/7/1 4/4/1
f 15/15/2 16/16/2 14/14/2 13/13/2
f 19/19/2 20/20/2 18/18/2 17/17/2
f 21/21/2 22/22/2 16/16/2 15/15/2
f 23/23/2 24/24/2 20/20/2 19/19/2
f 24/24/2 21/21/2 15/15/2 20/20/2
f 20/27/3 15/28/3 4/26/3 7/25/3
f 20/31/4 7/32/4 5/30/4 18/29/4
f 4/35/5 15/36/5 13/34/5 2/33/5
f 27/39/3 28/40/3 26/38/3 25/37/3
f 28/43/1 30/44/1 29/42/1 26/41/1
f 30/47/6 32/48/6 31/46/6 29/45/6
f 32/51/2 27/52/2 25/50/2 31/49/2
f 32/54/4 30/55/4 28/53/4 27/30/4
f 25/33/5 26/58/5 29/57/5 31/56/5
f 35/61/4 36/62/4 34/60/4 33/59/4
f 36/43/1 38/65/1 37/64/1 34/63/1
f 38/68/5 40/69/5 39/67/5 37/66/5
f 40/72/2 35/52/2 33/71/2 39/70/2
f 40/75/6 38/76/6 36/74/6 35/73/6
f 33/79/3 34/80/3 37/78/3 39/77/3
f 43/39/3 44/40/3 42/38/3 41/37/3
f 44/43/1 46/44/1 45/42/1 42/41/1
f 46/47/6 48/48/6 47/46/6 45/45/6
f 48/51/2 43/52/2 41/50/2 47/49/2
f 48/54/4 46/55/4 44/53/4 43/30/4
f 41/33/5 42/58/5 45/57/5 47/56/5
f 51/39/3 52/40/3 50/38/3 49/37/3
f 52/43/1 54/44/1 53/42/1 50/41/1
f 54/47/6 56/48/6 55/46/6 53/45/6
f 56/51/2 51/81/2 49/50/2 55/49/2
f 56/54/4 54/55/4 52/53/4 51/30/4
f 49/82/5 50/83/5 53/57/5 55/56/5
f 59/86/4 60/87/4 58/85/4 57/84/4
f 60/90/6 62/91/6 61/89/6 58/88/6
f 62/94/5 64/95/5 63/93/5 61/92/5
f 64/98/3 59/99/3 57/97/3 63/96/3
f 64/101/2 62/102/2 60/100/2 59/14/2
f 57/1/1 58/105/1 61/104/1 63/103/1
f 67/39/3 68/40/3 66/38/3 65/37/3
f 68/43/1 70/44/1 69/42/1 66/41/1
f 70/47/6 72/48/6 71/46/6 69/45/6
f 72/51/2 67/81/2 65/50/2 71/49/2
f 72/54/4 70/55/4 68/53/4 67/30/4
f 65/82/5 66/83/5 69/57/5 71/56/5
f 75/39/3 76/40/3 74/38/3 73/37/3
f 76/43/1 78/44/1 77/42/1 74/41/1
f 78/47/6 80/48/6 79/46/6 77/45/6
f 80/51/2 75/52/2 73/50/2 79/49/2
f 80/54/4 78/55/4 76/107/4 75/106/4
f 73/33/5 74/58/5 77/57/5 79/56/5
f 83/61/4 84/62/4 82/109/4 81/108/4
f 84/43/1 86/44/1 85/42/1 82/41/1
f 86/68/5 88/69/5 87/111/5 85/110/5
f 88/51/2 83/52/2 81/50/2 87/49/2
f 88/112/6 86/113/6 84/74/6 83/73/6
f 81/79/3 82/80/3 85/115/3 87/114/3
f 91/61/4 92/62/4 90/109/4 89/108/4
f 92/43/1 94/117/1 93/116/1 90/41/1
f 94/68/5 96/69/5 95/111/5 93/110/5
f 96/119/2 91/52/2 89/50/2 95/118/2
f 96/120/6 94/121/6 92/74/6 91/73/6
f 89/79/3 90/80/3 93/123/3 95/122/3

